<?xml version="1.0" encoding="UTF-8"?>
<!DOCTYPE svg PUBLIC "-//W3C//DTD SVG 1.1//EN" "http://www.w3.org/Graphics/SVG/1.1/DTD/svg11.dtd">
<!-- Creator: CorelDRAW -->
<svg xmlns="http://www.w3.org/2000/svg" xml:space="preserve" width="342px" height="100px" style="shape-rendering:geometricPrecision; text-rendering:geometricPrecision; image-rendering:optimizeQuality; fill-rule:evenodd; clip-rule:evenodd"
viewBox="0 0 342 99.9992"
 xmlns:xlink="http://www.w3.org/1999/xlink">
 <defs>
  <style type="text/css">
   <![CDATA[
    .fil0 {fill:none}
    .fil2 {fill:#CCA518}
    .fil1 {fill:#CCA518;fill-rule:nonzero}
   ]]>
  </style>
 </defs>
 <g id="Capa_x0020_1">
  <metadata id="CorelCorpID_0Corel-Layer"/>
  <rect class="fil0" y="2.26353e-005" width="342" height="100"/>
  <g id="_76031464">
   <path id="_50331144" class="fil1" d="M15.2232 25.9583c0.0685039,0.199606 1.74449,0.433465 5.03386,0.685039l30.9815 0 3.7063 -0.581102c0.54685,-0.069685 0.816142,0.0259843 0.816142,0.277559l-0.199606 9.46181c-0.13937,0.338976 -0.303543,0.538583 -0.512598,0.607087l-0.607087 -0.199606 -0.209055 -0.40748 -0.199606 -2.10945c-0.459449,-1.54488 -2.16142,-2.55236 -5.11299,-3.02953 -2.95039,-0.18189 -6.46654,-0.277559 -10.5555,-0.277559l0 35.2689c0.121654,4.10551 0.27874,6.72756 0.486614,7.86496 0.269291,0.998031 0.712205,1.6311 1.31929,1.90039l1.50236 0.408661 2.82047 0.103937c0.598819,0 0.96378,0.129921 1.0937,0.381496 0.069685,0.468898 -0.129921,0.78189 -0.607087,0.911811 -11.0598,-0.129921 -17.4224,-0.0956693 -19.0972,0.103937 -0.660236,0 -1.0937,-0.173622 -1.30276,-0.512598 -0.0685039,-0.389764 0.0354331,-0.650787 0.304724,-0.780709 2.20394,0 3.51496,-0.277559 3.92362,-0.816142 0.788976,-0.54685 1.22362,-3.1252 1.29331,-7.73386l0 -37.1008 -11.7449 0.277559c-1.81417,0.199606 -2.99528,0.572835 -3.54213,1.11969l-1.18937 1.70197 -0.615354 1.90984c-0.660236,0.40748 -1.05945,0.373228 -1.18937,-0.105118 -0.209055,-0.389764 -0.00944882,-2.09173 0.581102,-5.11181 0.477165,-2.60433 0.850394,-4.07126 1.11969,-4.39252 0.269291,-0.330709 0.842126,-0.269291 1.70197,0.173622z"/>
   <path id="_50354008" class="fil1" d="M65.4437 26.1579l6.17953 0.207874 5.95512 0 5.53819 -0.207874 0.816142 0.311811c0.069685,0.451181 0,0.755906 -0.199606,0.885827 -1.68425,0.069685 -2.95984,0.303543 -3.84567,0.712205 -0.998031,0.54685 -1.4752,2.29961 -1.42323,5.2689l0 35.8323c0.069685,3.35079 0.40748,5.23465 1.01575,5.64331l0.814961 0.607087 5.13898 0.590551c0.269291,0.199606 0.304724,0.50315 0.105118,0.911811l-1.0937 0.303543 -10.9122 -0.199606 -8.36811 0.103937 -0.511417 -0.40748 0 -0.512598 0.40748 -0.303543c1.61457,0 2.72598,-0.131102 3.33307,-0.382677 0.729921,-0.337795 1.19882,-1.08425 1.39843,-2.23937 0.40748,-4.16693 0.54685,-6.89173 0.40748,-8.15906l-0.103937 -34.4362c-0.199606,-1.06772 -0.538583,-1.87441 -1.01575,-2.41299l-0.885827 -0.512598 -3.22913 -0.303543c-0.40748,-0.207874 -0.54685,-0.538583 -0.40748,-0.989764l0.885827 -0.311811z"/>
   <path id="_76353464" class="fil1" d="M95.1685 25.9583c0.0685039,0.199606 1.74449,0.433465 5.03386,0.685039l30.9815 0 3.7063 -0.581102c0.54685,-0.069685 0.816142,0.0259843 0.816142,0.277559l-0.199606 9.46181c-0.13937,0.338976 -0.303543,0.538583 -0.512598,0.607087l-0.607087 -0.199606 -0.209055 -0.40748 -0.199606 -2.10945c-0.459449,-1.54488 -2.16142,-2.55236 -5.11299,-3.02953 -2.95039,-0.18189 -6.46654,-0.277559 -10.5555,-0.277559l0 35.2689c0.121654,4.10551 0.27874,6.72756 0.486614,7.86496 0.269291,0.998031 0.712205,1.6311 1.31929,1.90039l1.50236 0.408661 2.82047 0.103937c0.598819,0 0.96378,0.129921 1.0937,0.381496 0.069685,0.468898 -0.129921,0.78189 -0.607087,0.911811 -11.0598,-0.129921 -17.4224,-0.0956693 -19.0972,0.103937 -0.660236,0 -1.0937,-0.173622 -1.30276,-0.512598 -0.0685039,-0.389764 0.0354331,-0.650787 0.304724,-0.780709 2.20394,0 3.51496,-0.277559 3.92362,-0.816142 0.788976,-0.54685 1.22362,-3.1252 1.29331,-7.73386l0 -37.1008 -11.7449 0.277559c-1.81417,0.199606 -2.99528,0.572835 -3.54213,1.11969l-1.18937 1.70197 -0.615354 1.90984c-0.660236,0.40748 -1.05945,0.373228 -1.18937,-0.105118 -0.209055,-0.389764 -0.00944882,-2.09173 0.581102,-5.11181 0.477165,-2.60433 0.850394,-4.07126 1.11969,-4.39252 0.269291,-0.330709 0.842126,-0.269291 1.70197,0.173622z"/>
   <path id="_50321720" class="fil1" d="M154.463 56.5736l0.10748 0.312992 12.4512 0 -6.15709 -16.9961 -0.395669 0.381496 -6.00591 16.3016zm7.6063 -30.0083c0.745276,-0.217323 1.34764,0.269291 1.8248,1.44921l16.5142 41.224c1.05236,2.22283 1.8874,3.68031 2.49921,4.3748 0.925984,1.05118 1.76102,1.71024 2.49803,1.96181 1.19646,0.269291 2.42717,0.408661 3.68622,0.408661l0.323622 0.277559c0,0.572835 -0.27874,0.86811 -0.818504,0.86811l-2.18386 0.121654c-9.42992,0 -14.1768,-0.165354 -14.2311,-0.50315l0 -0.590551c0.341339,-0.251575 0.711024,-0.382677 1.11496,-0.382677 0.259843,-0.199606 0.422835,-0.520866 0.494882,-0.962598l-5.42126 -14.4449 -0.395669 -0.18189 -14.6976 0 -0.504331 0.762992 -3.81142 10.148 -0.50315 2.13543c-0.0720472,1.31102 0.153543,2.09173 0.682677,2.34331l0.818504 0.304724c1.71732,0 2.69646,0.0685039 2.92205,0.199606 0.197244,0.511417 0.080315,0.858661 -0.34252,1.05 -4.32402,-0.121654 -9.6815,-0.121654 -16.0913,0l-0.395669 -0.381496 0.108661 -0.668504 0.682677 -0.199606c1.59921,0.18189 3.10157,-0.173622 4.50354,-1.06772 1.07008,-0.799606 2.16614,-2.6563 3.29055,-5.57362l16.3252 -41.1189c0.341339,-0.78189 0.709843,-1.29331 1.10669,-1.55433z"/>
   <path id="_76288056" class="fil1" d="M200.746 25.9583l13.9583 15.3118 9.03661 9.20197 12.1524 13.0724 0.408661 0.607087 0.303543 0 -0.608268 -30.998c-0.138189,-2.57717 -0.581102,-4.19173 -1.32756,-4.85197l-1.39724 -0.712205 -3.86339 -0.311811c-0.269291,-0.338976 -0.269291,-0.676772 0,-1.01575l0.816142 -0.199606 10.4256 0.199606 5.39055 -0.199606 0.790157 0.40748 -0.105118 0.712205 -0.381496 0.199606c-1.7622,-0.069685 -2.98583,0.173622 -3.6626,0.712205l-0.816142 0.988583c-0.338976,1.0252 -0.538583,2.48268 -0.608268,4.37598l-0.711024 43.6713c-0.13937,0.538583 -0.304724,0.842126 -0.512598,0.911811 -0.790157,0.0685039 -1.43268,-0.173622 -1.90157,-0.712205 -3.44528,-3.37677 -11.6138,-11.7791 -24.5138,-25.226l-10.963 -12.2563 -0.207874 -0.103937 0.711024 30.1819c0.277559,2.71654 0.712205,4.36654 1.32874,4.96535l0.607087 0.50315 1.93583 0.512598c1.88386,-0.069685 2.85591,0.0685039 2.92559,0.40748 0.0602362,0.746457 -0.442913,1.08543 -1.52835,1.01575l-9.30472 -0.199606 -6.89291 0.0956693c-0.277559,0 -0.442913,-0.129921 -0.511417,-0.408661 -0.069685,-0.399213 0,-0.641339 0.199606,-0.711024 0.40748,-0.199606 1.24961,-0.269291 2.5252,-0.199606l1.62402 -0.408661c1.08425,-0.607087 1.6311,-2.46496 1.6311,-5.57244l0.504331 -38.2984 0.207874 -5.66811 2.33504 0z"/>
   <path id="_76124032" class="fil1" d="M259.593 26.1579l6.17953 0.207874 5.95512 0 5.53819 -0.207874 0.816142 0.311811c0.069685,0.451181 0,0.755906 -0.199606,0.885827 -1.68425,0.069685 -2.95984,0.303543 -3.84567,0.712205 -0.998031,0.54685 -1.4752,2.29961 -1.42323,5.2689l0 35.8323c0.069685,3.35079 0.40748,5.23465 1.01575,5.64331l0.814961 0.607087 5.13898 0.590551c0.269291,0.199606 0.304724,0.50315 0.105118,0.911811l-1.0937 0.303543 -10.9122 -0.199606 -8.36811 0.103937 -0.511417 -0.40748 0 -0.512598 0.40748 -0.303543c1.61457,0 2.72598,-0.131102 3.33307,-0.382677 0.729921,-0.337795 1.19882,-1.08425 1.39843,-2.23937 0.40748,-4.16693 0.54685,-6.89173 0.40748,-8.15906l-0.103937 -34.4362c-0.199606,-1.06772 -0.538583,-1.87441 -1.01575,-2.41299l-0.885827 -0.512598 -3.22913 -0.303543c-0.40748,-0.207874 -0.54685,-0.538583 -0.40748,-0.989764l0.885827 -0.311811z"/>
   <path id="_76288120" class="fil1" d="M314.226 25.9063c3.15709,-0.199606 7.42205,0.0259843 12.7854,0.685039 3.71575,0.78189 5.94921,1.17165 6.70039,1.17165l0.401575 0.486614 -0.401575 4.60039 -0.101575 6.45827c-0.0732283,0.833858 -0.283465,1.28504 -0.622441,1.34528l-0.694488 -0.0944882 -0.320079 -1.06772c-0.147638,-4.35827 -2.49094,-7.32638 -7.02992,-8.90669 -3.71575,-1.30157 -7.8437,-1.7185 -12.3839,-1.24134 -2.88307,0.433465 -5.20748,1.17165 -7.00039,2.21339 -1.39134,0.859843 -2.67283,1.97008 -3.83622,3.3248 -2.53465,3.27283 -4.00866,7.74331 -4.41969,13.4031 -0.146457,3.85394 0.255118,7.16929 1.20827,9.97323 0.767717,2.35276 1.94055,4.57441 3.51378,6.65787 4.07244,4.81772 8.98819,7.57795 14.7449,8.29016 2.83701,0.13937 5.42717,0.00826772 7.75157,-0.381496 2.33386,-0.520866 4.02756,-1.31102 5.06102,-2.36102l1.63937 -1.83189c0.915354,-1.58031 1.46457,-3.01181 1.66535,-4.29685 0.622441,-0.590551 1.07008,-0.530315 1.33583,0.199606 0,1.79646 -0.411024,4.62638 -1.23543,8.47205 -0.191339,1.11969 -0.530315,1.84016 -1.01457,2.16142 -1.59331,1.03346 -5.27362,1.68425 -11.048,1.96181 -6.39803,0.0602362 -11.5228,-0.555118 -15.3661,-1.85787 -5.64803,-1.83189 -10.0866,-4.96535 -13.3264,-9.38386 -2.6811,-3.6626 -4.1563,-8.13307 -4.42087,-13.402 -0.0732283,-4.61811 0.56811,-8.46378 1.9311,-11.5453 0.265748,-0.833858 1.13504,-2.36102 2.59961,-4.58386 5.09764,-6.57992 12.3827,-10.0606 21.8835,-10.4504z"/>
   <rect id="_76123640" class="fil2" x="13.2059" y="15.4039" width="319.904" height="1.92874"/>
   <rect id="_76286752" class="fil2" x="13.2059" y="85.3346" width="319.904" height="1.92874"/>
  </g>
 </g>
</svg>
